<svg preserveAspectRatio="xMidYMid meet" data-bbox="20.354 38.869 159.293 122.257" viewBox="20.354 38.869 159.293 122.257" height="200" width="200" xmlns="http://www.w3.org/2000/svg" data-type="color" role="presentation" aria-hidden="true" aria-labelledby="svgcid-gpldgc-ul67ha"><defs><style>#comp-kq9g53cf1 svg [data-color="1"] {fill: #FD5521;}</style></defs><title id="svgcid-gpldgc-ul67ha"></title>
    <g>
        <path d="M100.2 104.705a38.52 38.52 0 0 0 3.99-9.611l6.928-1.749a2.448 2.448 0 0 0 1.845-2.375V79.393a2.446 2.446 0 0 0-1.848-2.375l-6.925-1.75a38.533 38.533 0 0 0-3.99-9.61l3.675-6.156a2.46 2.46 0 0 0-.38-2.972L95.3 48.337a2.458 2.458 0 0 0-2.985-.365l-6.136 3.665a38.539 38.539 0 0 0-9.612-3.989L74.816 40.7a2.446 2.446 0 0 0-2.369-1.831H60.869a2.452 2.452 0 0 0-2.369 1.853l-1.751 6.926a38.539 38.539 0 0 0-9.612 3.989l-5.771-3.446a2.556 2.556 0 0 0-3.354.152l-8.18 8.181a2.438 2.438 0 0 0-.379 2.992l3.664 6.142a38.529 38.529 0 0 0-3.99 9.61l-6.917 1.75a2.445 2.445 0 0 0-1.856 2.375V90.97a2.446 2.446 0 0 0 1.846 2.375l6.921 1.749a38.551 38.551 0 0 0 3.99 9.611l-3.657 6.132a2.436 2.436 0 0 0 .365 3L38 122.015a2.447 2.447 0 0 0 2.992.376l6.143-3.665a38.422 38.422 0 0 0 9.609 3.989l1.755 6.939a2.447 2.447 0 0 0 2.369 1.836h11.579a2.437 2.437 0 0 0 2.373-1.849l1.751-6.926a38.472 38.472 0 0 0 9.612-3.989l6.144 3.668a2.455 2.455 0 0 0 2.984-.374l8.195-8.193a2.465 2.465 0 0 0 .365-2.981zm-6.82 14l-5.944-3.549a2.469 2.469 0 0 0-2.54.016 34.809 34.809 0 0 1-9.934 4.124 2.446 2.446 0 0 0-1.8 1.784l-1.693 6.7h-9.623l-1.689-6.691a2.467 2.467 0 0 0-1.806-1.795 34.747 34.747 0 0 1-9.93-4.12 2.453 2.453 0 0 0-2.544-.015l-5.94 3.546-6.8-6.806 3.545-5.944a2.441 2.441 0 0 0-.014-2.536 34.755 34.755 0 0 1-4.125-9.942 2.463 2.463 0 0 0-1.783-1.8l-6.7-1.693v-9.62l6.712-1.7a2.465 2.465 0 0 0 1.776-1.8 34.652 34.652 0 0 1 4.117-9.924 2.457 2.457 0 0 0 .018-2.55l-3.545-5.939 6.805-6.8 5.962 3.56a2.443 2.443 0 0 0 2.518-.029 34.8 34.8 0 0 1 9.945-4.126 2.45 2.45 0 0 0 1.791-1.782l1.693-6.7h9.618l1.7 6.713a2.435 2.435 0 0 0 1.8 1.772 34.861 34.861 0 0 1 9.942 4.128 2.468 2.468 0 0 0 2.536.008l5.937-3.546 6.805 6.805-3.551 5.946a2.466 2.466 0 0 0 .014 2.536 34.707 34.707 0 0 1 4.121 9.933v.009a2.46 2.46 0 0 0 1.787 1.8l6.7 1.692v9.623l-6.7 1.693a2.468 2.468 0 0 0-1.787 1.806 34.738 34.738 0 0 1-4.128 9.945 2.469 2.469 0 0 0-.007 2.529l3.549 5.938zm85.406 11.667l-4.62-2.932a29.537 29.537 0 0 0-.561-7.422l4.143-3.593a1.85 1.85 0 0 0 .438-2.232l-4.255-8.428a1.828 1.828 0 0 0-2.059-.973l-5.347 1.2a29.475 29.475 0 0 0-5.636-4.859l.387-5.461a1.854 1.854 0 0 0-1.27-1.89l-8.965-2.952a1.846 1.846 0 0 0-2.142.768l-2.934 4.622a28.939 28.939 0 0 0-7.424.559l-3.589-4.139a1.851 1.851 0 0 0-2.235-.439l-8.426 4.253a1.852 1.852 0 0 0-.973 2.056l1.2 5.349a29.472 29.472 0 0 0-4.862 5.637l-5.46-.385a1.818 1.818 0 0 0-1.888 1.268l-2.952 8.965a1.848 1.848 0 0 0 .767 2.143l4.623 2.932a29.4 29.4 0 0 0 .557 7.422l-4.138 3.593a1.847 1.847 0 0 0-.438 2.232l4.251 8.426a1.837 1.837 0 0 0 2.058.973l5.348-1.194a29.546 29.546 0 0 0 5.636 4.859l-.387 5.461a1.855 1.855 0 0 0 1.27 1.891l8.965 2.952a1.913 1.913 0 0 0 .579.092 1.851 1.851 0 0 0 1.563-.859l2.937-4.624a29.316 29.316 0 0 0 7.42-.559l3.589 4.139a1.854 1.854 0 0 0 2.236.44l8.426-4.253a1.853 1.853 0 0 0 .973-2.057l-1.2-5.349a29.542 29.542 0 0 0 4.862-5.637l5.459.386a1.85 1.85 0 0 0 1.889-1.268l2.952-8.965a1.851 1.851 0 0 0-.764-2.143zm-5.253 8.58l-5.123-.362a1.8 1.8 0 0 0-1.715.885 25.815 25.815 0 0 1-5.539 6.429 1.852 1.852 0 0 0-.622 1.825l1.122 5.019-5.85 2.953-3.369-3.884a1.851 1.851 0 0 0-1.841-.586 25.53 25.53 0 0 1-8.458.638 1.805 1.805 0 0 0-1.73.852l-2.757 4.338-6.222-2.049.362-5.125a1.857 1.857 0 0 0-.887-1.713 25.853 25.853 0 0 1-6.425-5.541 1.852 1.852 0 0 0-1.827-.62l-5.018 1.121-2.952-5.85 3.885-3.372a1.847 1.847 0 0 0 .583-1.839 25.727 25.727 0 0 1-.637-8.461 1.856 1.856 0 0 0-.854-1.731l-4.338-2.751 2.052-6.225 5.123.362a1.879 1.879 0 0 0 1.714-.884 25.821 25.821 0 0 1 5.539-6.429 1.851 1.851 0 0 0 .623-1.825l-1.122-5.02 5.85-2.952 3.368 3.883a1.868 1.868 0 0 0 1.838.587 25.775 25.775 0 0 1 8.466-.639 1.888 1.888 0 0 0 1.729-.852l2.753-4.338 6.223 2.05-.362 5.124a1.855 1.855 0 0 0 .887 1.713 25.87 25.87 0 0 1 6.429 5.541 1.851 1.851 0 0 0 1.827.621l5.018-1.124 2.952 5.852-3.886 3.372a1.848 1.848 0 0 0-.582 1.836 25.9 25.9 0 0 1 .636 8.464 1.858 1.858 0 0 0 .854 1.731l4.334 2.751zM66.658 64.806a20.376 20.376 0 1 0 20.376 20.375 20.4 20.4 0 0 0-20.376-20.375zm0 37.046a16.671 16.671 0 1 1 16.671-16.671 16.689 16.689 0 0 1-16.671 16.671zm77.8 7.41a16.671 16.671 0 1 0 16.671 16.671 16.689 16.689 0 0 0-16.673-16.671zm0 29.637a12.967 12.967 0 1 1 12.966-12.966 12.982 12.982 0 0 1-12.968 12.967z" fill="#fd5521" data-color="1"></path>
    </g>
</svg>