<svg preserveAspectRatio="xMidYMid meet" data-bbox="27.8 27.775 144.4 144.525" viewBox="27.8 27.775 144.4 144.525" height="200" width="200" xmlns="http://www.w3.org/2000/svg" data-type="color" role="presentation" aria-hidden="true" aria-labelledby="svgcid-kx4mbe43t7c5"><defs><style>#comp-kq9g53cb2 svg [data-color="1"] {fill: #FD5521;}</style></defs><title id="svgcid-kx4mbe43t7c5"></title>
    <g>
        <path d="M27.8 151.9c0 11.2 9.1 20.4 20.4 20.4H137c11.2 0 20.4-9.1 20.4-20.4s-9.1-20.4-20.4-20.4h-5.6v-3.9c0-6-4.9-10.9-10.9-10.9h-7.9l-.1-.7 56-69.9v41h-13c-.7 0-1.3.4-1.7 1l-10.6 21.2H137c-1 0-1.9.8-1.9 1.9 0 1 .8 1.9 1.9 1.9h33.3c1 0 1.9-.8 1.9-1.9V40.7c0-.2 0-.4-.1-.6V40c-.1-.2-.2-.4-.3-.5v-.1l-11.1-11.1c-.7-.7-1.9-.7-2.6 0l-51.2 51.2-4.2-26.5c-.5-3.8-3.9-6.7-7.7-6.7H54.1c-4.3 0-7.8 3.5-7.8 7.8v77.5c-10.4.9-18.5 9.7-18.5 20.3zm81.1-35.2H50V54.1c0-2.3 1.8-4.1 4.1-4.1h40.8c2 0 3.8 1.5 4 3.5l10 63.2zm59.6-26v18.5h-21.1l9.3-18.5h11.8zM111.8 111l-4.4-27.7c.5 0 1-.2 1.3-.5l50.6-50.6 8.6 8.6-56.1 70.2zm16 20.5H50v-11.1h70.6c4 0 7.2 3.2 7.2 7.2v3.9zm-96.3 20.4c0-9.2 7.5-16.7 16.7-16.7H137c9.2 0 16.7 7.5 16.7 16.7s-7.5 16.7-16.7 16.7H48.1c-9.2-.1-16.6-7.5-16.6-16.7zm64.3-54.3c.4-.4.6-1 .5-1.6l-5.2-34.3c-.3-2.5-2.5-4.3-5-4.3H62.5c-2.8 0-5.1 2.3-5.1 5.1v30.1c0 .9.7 1.7 1.7 1.8l35.2 3.7h.2c.4 0 .9-.2 1.3-.5zm-3.5-3.4l-31.2-3.3V62.5c0-.8.6-1.4 1.4-1.4h23.6c.7 0 1.3.5 1.4 1.2l4.8 31.9zm-31.2 11.4h11.1c1 0 1.9.8 1.9 1.9s-.8 1.9-1.9 1.9H61.1c-1 0-1.9-.8-1.9-1.9s.9-1.9 1.9-1.9zm63 44.4h7.4c1 0 1.9.8 1.9 1.9s-.8 1.9-1.9 1.9h-7.4c-1 0-1.9-.8-1.9-1.9s.9-1.9 1.9-1.9zM87 150h7.4c1 0 1.9.8 1.9 1.9s-.8 1.9-1.9 1.9H87c-1 0-1.9-.8-1.9-1.9S86 150 87 150zm-37 0h7.4c1 0 1.9.8 1.9 1.9s-.8 1.9-1.9 1.9H50c-1 0-1.9-.8-1.9-1.9S49 150 50 150z" fill="#fd5521" data-color="1"></path>
    </g>
</svg>