<svg preserveAspectRatio="xMidYMid meet" data-bbox="22.857 27.759 144.489 144.481" viewBox="22.857 27.759 144.489 144.481" height="200" width="200" xmlns="http://www.w3.org/2000/svg" data-type="color" role="presentation" aria-hidden="true" aria-labelledby="svgcid--twadhc-3qyrgl"><defs><style>#comp-kq9g53cj1 svg [data-color="1"] {fill: #FD5521;}</style></defs><title id="svgcid--twadhc-3qyrgl"></title>
    <g>
        <path d="M166.8 61.643L133.455 28.3a1.855 1.855 0 0 0-2.539-.074l-16.671 14.819a1.85 1.85 0 0 0-.492 2.066l7.228 18.268-41.054 41.056-16.86-16.86a1.852 1.852 0 0 0-2.619 0L23.4 124.622a1.848 1.848 0 0 0-.507 1.673l7.41 37.047a1.85 1.85 0 0 0 1.454 1.452l37.047 7.41a1.923 1.923 0 0 0 .362.036 1.855 1.855 0 0 0 1.309-.543l37.047-37.046a1.854 1.854 0 0 0 0-2.62l-17.566-17.567L131 73.426l18.961 7.907a1.856 1.856 0 0 0 2.1-.48l14.818-16.671a1.849 1.849 0 0 0-.079-2.539zm-63.2 71.7l-4.79 4.79-9.8-9.8a1.852 1.852 0 0 0-2.62 2.619l9.805 9.8-27.636 27.624-34.865-6.976-6.972-34.863 27.626-27.623 9.8 9.8a1.852 1.852 0 1 0 2.62-2.619l-9.805-9.805 4.79-4.79 15.55 15.55-14.735 14.75A7.091 7.091 0 1 0 72.6 131.823l14.74-14.74zm46.569-55.935l-18.895-7.878a1.844 1.844 0 0 0-2.022.4L69.977 129.2a3.469 3.469 0 0 1-4.79 0 3.39 3.39 0 0 1 0-4.79l59.275-59.275a1.855 1.855 0 0 0 .412-1.991l-7.2-18.2 14.4-12.8 30.874 30.87zm-19.333-34.289a1.852 1.852 0 0 1 2.619 0l16.671 16.671a1.852 1.852 0 0 1-2.619 2.62l-16.671-16.671a1.854 1.854 0 0 1 0-2.62z" fill="#fd5521" data-color="1"></path>
    </g>
</svg>