<svg preserveAspectRatio="xMidYMid meet" data-bbox="35.168 38.873 129.664 122.254" viewBox="35.168 38.873 129.664 122.254" height="200" width="200" xmlns="http://www.w3.org/2000/svg" data-type="color" role="presentation" aria-hidden="true" aria-labelledby="svgcid--oc79ppo12pl1"><defs><style>#comp-kq9g539w svg [data-color="1"] {fill: #FD5521;}</style></defs><title id="svgcid--oc79ppo12pl1"></title>
    <g>
        <path d="M153.718 148.161V51.839a1.852 1.852 0 0 0-1.853-1.852H61.1v-9.262a1.851 1.851 0 0 0-1.852-1.852H44.43a9.272 9.272 0 0 0-9.262 9.262v92.616a9.272 9.272 0 0 0 9.262 9.262h107.435a1.852 1.852 0 0 0 1.853-1.852zM38.873 48.135a5.563 5.563 0 0 1 5.557-5.557H57.4v88.912H44.43a9.214 9.214 0 0 0-5.557 1.856zm111.14 98.173H44.43a5.557 5.557 0 1 1 0-11.114h14.819a1.851 1.851 0 0 0 1.852-1.852v-79.65h88.912zm14.819-83.355v96.322a1.852 1.852 0 0 1-1.853 1.852H55.544a1.853 1.853 0 0 1 0-3.705h105.583V62.953a1.853 1.853 0 0 1 3.7 0zm-90.765 64.832h59.275a1.851 1.851 0 0 0 1.852-1.852V85.181a1.851 1.851 0 0 0-1.852-1.852h-12.966V70.363a1.852 1.852 0 0 0-1.853-1.853H74.067a1.852 1.852 0 0 0-1.852 1.853v55.57a1.852 1.852 0 0 0 1.852 1.852zm1.853-55.57h18.523v1.852a1.853 1.853 0 1 0 3.7 0v-1.852h18.523v12.966a1.851 1.851 0 0 0 1.852 1.853h12.972v14.818h-16.671a1.853 1.853 0 1 0 0 3.7h16.671v18.528H98.148v-1.852a1.853 1.853 0 0 0-3.7 0v1.852H75.92zm18.523 20.376v-7.41a1.853 1.853 0 0 1 3.7 0v7.41a1.853 1.853 0 0 1-3.7 0zm0 18.523v-7.409a1.853 1.853 0 1 1 3.7 0v7.409a1.853 1.853 0 0 1-3.7 0z" fill="#fd5521" data-color="1"></path>
    </g>
</svg>