<svg preserveAspectRatio="xMidYMid meet" data-bbox="38.832 31.857 122.312 136.392" viewBox="38.832 31.857 122.312 136.392" height="200" width="200" xmlns="http://www.w3.org/2000/svg" data-type="color" role="presentation" aria-hidden="true" aria-labelledby="svgcid--xf3r0y5073vx"><defs><style>#comp-kq9g53a0 svg [data-color="1"] {fill: #FD5521;}</style></defs><title id="svgcid--xf3r0y5073vx"></title>
    <g>
        <path d="M141.867 146.994H131a8.219 8.219 0 0 1-8.209-8.209v-6.525a36.772 36.772 0 0 0 12.84-19.941h3.238a8.355 8.355 0 0 0 8.346-8.345V85.5a4.8 4.8 0 0 0-4.794-4.794h-2.185V65.11a8.812 8.812 0 0 0-8.047-8.752 29.785 29.785 0 0 0-23.356-13.911v-1.761a8.829 8.829 0 1 0-17.658 0v1.76A29.837 29.837 0 0 0 67.8 56.359a8.813 8.813 0 0 0-8.034 8.751V80.7h-2.183a4.8 4.8 0 0 0-4.794 4.8v18.478a8.355 8.355 0 0 0 8.346 8.345h3.238a36.772 36.772 0 0 0 12.84 19.941v6.525A8.219 8.219 0 0 1 69 146.994H58.133c-.959 0-1.816.112-2.705.189a1.825 1.825 0 0 0-.787-.189 1.8 1.8 0 0 0-.97.313c-9.73 1.452-14.836 7.941-14.836 18.984a1.853 1.853 0 1 0 3.7 0c0-8.5 3.407-13.4 10.249-14.976v14.976a1.853 1.853 0 1 0 3.7 0v-15.486c.55-.031 1.055-.106 1.639-.106h8.614v15.592a1.852 1.852 0 1 0 3.7 0v-15.739a11.808 11.808 0 0 0 5.013-1.784 36.588 36.588 0 0 0 48.148-.255 1.816 1.816 0 0 0 .212-.277 11.868 11.868 0 0 0 2.237 1.361v16.694a1.853 1.853 0 1 0 3.7 0v-15.717a11.616 11.616 0 0 0 1.23.125h9.019v15.592a1.853 1.853 0 1 0 3.705 0v-15.472c9.2.6 13.74 5.64 13.74 15.472a1.853 1.853 0 1 0 3.7 0c.024-12.624-6.647-19.297-19.274-19.297zm-5.34-81.884V80.7h-10.252V65.11a5.116 5.116 0 0 1 4.7-5.084 1.75 1.75 0 0 0 .241.064 1.9 1.9 0 0 0 .342-.091 5.124 5.124 0 0 1 4.969 5.111zm-8.4-8.186a8.833 8.833 0 0 0-5.555 8.186V80.7h-13.743V46.151a26.091 26.091 0 0 1 19.296 10.773zM94.875 40.686a5.125 5.125 0 1 1 10.25 0V80.7h-10.25zm-3.7 5.465V80.7H77.43V65.11a8.832 8.832 0 0 0-5.55-8.184 26.133 26.133 0 0 1 19.291-10.775zM63.473 65.11a5.126 5.126 0 1 1 10.252 0V80.7H63.473zm3.487 38.379a1.853 1.853 0 0 0-3.7 0 36.693 36.693 0 0 0 .4 5.125h-2.525a4.647 4.647 0 0 1-4.641-4.64V85.5a1.09 1.09 0 0 1 1.089-1.089h5.672v5.127a1.853 1.853 0 0 0 3.7 0v-5.131h66.08v5.127a1.853 1.853 0 0 0 3.705 0v-5.127h5.672a1.09 1.09 0 0 1 1.089 1.089v18.478a4.647 4.647 0 0 1-4.641 4.64h-2.521a36.693 36.693 0 0 0 .4-5.125 1.853 1.853 0 0 0-3.705 0 33.04 33.04 0 0 1-66.08 0zm32.467 50.484a32.966 32.966 0 0 1-21.2-7.736 11.8 11.8 0 0 0 2.694-7.452v-3.956a36.4 36.4 0 0 0 38.164 0v3.956a11.815 11.815 0 0 0 2.213 6.869c-.038.029-.085.038-.122.07a33.049 33.049 0 0 1-21.749 8.249z" fill="#fd5521" data-color="1"></path>
    </g>
</svg>