<svg preserveAspectRatio="xMidYMid meet" data-bbox="30.918 34.462 138.164 131.077" viewBox="30.918 34.462 138.164 131.077" height="200" width="200" xmlns="http://www.w3.org/2000/svg" data-type="color" role="presentation" aria-hidden="true" aria-labelledby="svgcid--46i3ez5yy57w"><defs><style>#comp-kq9g53c74 svg [data-color="1"] {fill: #FD5521;}</style></defs><title id="svgcid--46i3ez5yy57w"></title>
    <g>
        <path d="M105.313 45.089a1.77 1.77 0 0 1-1.771-1.771v-7.085a1.771 1.771 0 1 1 3.542 0v7.085a1.77 1.77 0 0 1-1.771 1.771zm63.769 97.423v21.255a1.771 1.771 0 0 1-1.771 1.772H32.689a1.771 1.771 0 0 1-1.771-1.772v-21.255a1.77 1.77 0 0 1 1.771-1.772h4.581l58.29-58.29a7.041 7.041 0 0 1-2.646-5.477v-5.314a1.772 1.772 0 0 1 3.543 0v5.314a3.543 3.543 0 1 0 7.085 0V64.614a3.9 3.9 0 0 1-1.285-1.025l-9.713-12.141a3.914 3.914 0 0 1 3.056-6.359h19.428a3.914 3.914 0 0 1 3.056 6.357l-9.714 12.143a3.9 3.9 0 0 1-1.286 1.025v12.359a7.049 7.049 0 0 1-2.738 5.554l51.366 58.213h11.6a1.77 1.77 0 0 1 1.77 1.772zm-64.058-81.137a.358.358 0 0 0 .289.14l10-12.281a.371.371 0 0 0-.289-.6H95.6a.369.369 0 0 0-.289.6zM42.279 140.74h31.15V124.8a1.771 1.771 0 0 1 1.772-1.771h49.6a1.77 1.77 0 0 1 1.771 1.771v15.94h24.416l-50.097-56.772a4.592 4.592 0 0 1-1.834-.005zm80.747-14.17H76.972v14.17h46.054zm42.513 17.713H34.461V162h131.078z" fill="#fd5521" data-color="1"></path>
    </g>
</svg>